# xmcd
# 
# Track frame offsets:
#     150
#     22810
#     47765
#     70382
# 
# Disc length: 1265
# 
# Revision: 3
# Processed by: cddbd v1.5.2PL0 Copyright (c) Steve Scherf et al.
# Submitted via: fre:ac v1.0.31
# 
DISCID=2c04ef04
DTITLE=水島康宏 - 枯れ葉色のクレッシェンド
DYEAR=1994
DGENRE=Anime
TTITLE0=枯れ葉色のクレッシェンド
TTITLE1=夢のお話
TTITLE2=枯れ葉色のクレッシェンド(offvocal)
TTITLE3=夢のお話(offvocal)
EXTD=YEAR: 1994
EXTT0=
EXTT1=
EXTT2=
EXTT3=
PLAYORDER=
